HIERARCHY
ROOT Spine
{
    OFFSET 0.0 0.0 -0.0
    CHANNELS 6 Xposition Yposition Zposition Zrotation Xrotation Yrotation
    JOINT ShoulderCenter
    {
        OFFSET 0.0 0.22473858296871185 0.0
        CHANNELS 3 Zrotation Xrotation Yrotation
        JOINT LeftShoulder
        {
            OFFSET 0.17376044392585754 0.0 0.0
            CHANNELS 3 Zrotation Xrotation Yrotation
            JOINT LeftElbow
            {
                OFFSET 0.2362436056137085 0.0 0.0
                CHANNELS 3 Zrotation Xrotation Yrotation
                JOINT LeftHand
                {
                    OFFSET 0.3208072781562805 0.0 0.0
                    CHANNELS 3 Zrotation Xrotation Yrotation
                    End Site
                    {
                        OFFSET 0.12832291424274445 0.0 0.0
                    }
                }
            }
        }
        JOINT RightShoulder
        {
            OFFSET -0.17376044392585754 0.0 0.0
            CHANNELS 3 Zrotation Xrotation Yrotation
            JOINT RightElbow
            {
                OFFSET -0.2362436056137085 0.0 0.0
                CHANNELS 3 Zrotation Xrotation Yrotation
                JOINT RightHand
                {
                    OFFSET -0.3208072781562805 0.0 0.0
                    CHANNELS 3 Zrotation Xrotation Yrotation
                    End Site
                    {
                        OFFSET -0.12832291424274445 0.0 0.0
                    }
                }
            }
        }
        End Site
        {
            OFFSET 0.0 0.08989543467760086 0.0
        }
    }
    JOINT LeftHip
    {
        OFFSET 0.21580990322694008 -0.21580990322694008 0.0
        CHANNELS 3 Zrotation Xrotation Yrotation
        JOINT LeftKnee
        {
            OFFSET 0.0 -0.3208352029323578 0.0
            CHANNELS 3 Zrotation Xrotation Yrotation
            JOINT LeftFoot
            {
                OFFSET 0.0 -0.3814619779586792 0.0
                CHANNELS 3 Zrotation Xrotation Yrotation
                End Site
                {
                    OFFSET 0.0 0.0 0.15258479118347168
                }
            }
        }
    }
    JOINT RightHip
    {
        OFFSET -0.21580990322694008 -0.21580990322694008 0.0
        CHANNELS 3 Zrotation Xrotation Yrotation
        JOINT RightKnee
        {
            OFFSET 0.0 -0.3208352029323578 0.0
            CHANNELS 3 Zrotation Xrotation Yrotation
            JOINT RightFoot
            {
                OFFSET 0.0 -0.3814619779586792 0.0
                CHANNELS 3 Zrotation Xrotation Yrotation
                End Site
                {
                    OFFSET 0.0 0.0 0.15258479118347168
                }
            }
        }
    }
}
MOTION
Frames: 12
Frame Time: 0.03333333333333333
-0.733488917350769 0.21138539910316467 3.342132091522217 0.06823844478325435 -16.682932946829172 -173.0343671175664 -2.2884772686558098e-07 -4.261317259498536e-07 -3.0647169801629697 133.7798250017777 -50.82991799799151 -138.99892128501227 3.1953319581622566e-06 -7.8061064740462e-07 126.09941249318679 -8.324107955392797e-15 -6.373533404651499e-15 7.454425034680069e-17 -117.62234064326452 -22.61297895263079 153.86084369986634 7.651160381451641e-06 -3.0290167071639257e-06 -134.68641994719803 7.951386703658794e-16 5.565970692561154e-15 -3.975693351829396e-15 0.3570922633313397 8.632644303369174 -53.15283232003104 6.322422786520459 -13.307389029702968 42.747489006113284 2.981770013872047e-16 2.586273221513765e-34 9.93923337957349e-17 -5.996815363278873 -4.1338490756655055 17.5219032359953 0.5556164527040369 -2.382191336471834 -9.449208147495899 0.0 0.0 4.969616689786744e-16
-0.7391402721405029 0.20077019929885864 3.34183406829834 2.81410527623562 -19.01948229633748 -171.9620011413853 -2.9339388840645996e-07 -1.3316435193829354e-06 -4.12151614537507 148.62410801745375 -38.5265936377465 -120.91193307642901 2.2823361946780765e-06 -2.975156286480042e-07 127.25575339580871 7.951386703658792e-15 -3.9756933518293955e-16 7.951386703658792e-16 -116.2070674159417 -18.73909213192066 135.17878384949023 3.2488241697315726e-06 6.334195939215435e-06 -136.0304714044378 -1.4908850069360234e-15 -3.1805546814635164e-15 1.1927080055488186e-15 2.731701209528877 5.630849129230583 -52.73991804538355 5.822922670150811 -13.259124781719969 44.8914049764151 -6.429441592411602e-16 1.5902773407317584e-15 8.922642614222489e-33 -3.8063964826080694 -6.9551182955154465 11.723200093063674 0.7573536449768783 -2.081119015912502 -7.544591008980628 1.987846675914698e-16 -9.483001812217137e-34 -5.466578358765419e-16
-0.7407439947128296 0.1978197991847992 3.3403680324554443 2.6757881462261004 -18.90878329071739 -170.9841069833865 1.3720383780474851e-08 1.1006869915022825e-06 -5.107733567201484 146.26026179969443 -37.96751117956474 -123.08966772725043 -6.509217004239915e-07 4.213660519644456e-06 129.62757876543793 -7.95138670365879e-16 -1.6552148617688095e-32 2.3854160110976368e-15 -120.50955614671676 -20.123562299330317 130.70812006139565 -1.8254356173926265e-06 1.2960549540112325e-06 -135.96961896911236 1.1927080055488186e-15 3.1805546814635164e-15 -1.5902773407317582e-15 2.5575707661888494 5.554532823513021 -51.94079784015564 5.760214297194986 -12.08583997119302 43.543627419709175 7.143823991568445e-16 -1.5902773407317582e-15 -9.939233379573487e-17 -3.8725846299697166 -6.493673272480055 10.516425837813106 0.6389726265639926 -2.1891955308721283 -7.648024941636372 -1.9878466759146985e-16 -3.965618939654439e-33 2.286023677301903e-15
-0.7405967712402344 0.19662119448184967 3.339266061782837 2.55215949745799 -19.076008410823746 -170.91764682749735 -2.975626376712652e-07 1.599150748473428e-07 -5.246901479020766 146.76522773841683 -38.32625602987538 -122.72072530055848 1.9455062952176366e-06 -5.249652543505559e-07 130.17268288849917 -6.361109362927033e-15 -5.9635400277440935e-15 1.5902773407317578e-15 -121.51982879956265 -22.298655631677757 127.98174381918425 2.433717522708985e-06 3.85456424305527e-06 -137.95433765922974 -3.1805546814635168e-15 3.1805546814635168e-15 3.1805546814635168e-15 2.451972975679327 5.369010371295093 -51.31326360708549 5.489835522839724 -12.339990861990062 43.95878546231629 -3.975693351829396e-16 0.0 0.0 -3.9387894411820175 -6.566385668917934 9.783423851181656 0.5475004899856368 -2.265261041947522 -7.881140372186339 -2.758691436281349e-33 1.590277340731758e-15 1.9878466759146975e-16
-0.7402284741401672 0.1966308057308197 3.3385939598083496 2.1587839445800885 -19.449890322437362 -170.59090222500177 -5.0134200410199264e-08 7.899839176322046e-07 -4.628747002715116 147.98557062518083 -39.67359035205637 -120.45902160217219 -5.300633896265586e-07 -4.955993398445905e-07 130.7255200362375 -1.5902773407317584e-15 6.620859447075238e-32 -4.770832022195275e-15 -122.1525221440499 -24.047315921429703 127.49247565285327 3.114061865203955e-10 5.04321071875737e-08 -138.96928442512936 1.5902773407317582e-15 3.1805546814635164e-15 -1.5902773407317582e-15 2.102229428126629 4.82847299334455 -50.44389091664122 5.326597374952897 -12.080772798320831 43.954744701910826 -2.981770013872047e-16 2.586273221513765e-34 -9.93923337957349e-17 -4.423066814380576 -6.856057208139481 8.883764945061312 0.7782675432123795 -2.335272015784853 -8.055184607930064 1.9878466759146977e-16 -3.879409832270647e-33 -2.2363275104040347e-15
-0.7397931218147278 0.1966893970966339 3.3382480144500732 1.6500882903775742 -19.792758373500533 -170.26805214554253 -1.1742795684013294e-08 3.2114884799748494e-07 -4.85127891994522 147.12940337193507 -46.001942969684286 -124.72507259475228 4.514318770923067e-06 8.502293163131259e-06 132.9756598762734 7.951386703658792e-15 0.0 0.0 -123.68851429343479 -25.83006037542365 126.2881934372154 1.260340475327428e-07 -1.3381099805502884e-06 -138.43124539088438 6.3611093629270335e-15 -3.1805546814635168e-15 3.1805546814635168e-15 1.8055026476929719 4.061898619777505 -48.984190541668454 4.0051361033975335 -11.992689503933487 42.24345608416223 -7.454425034680117e-16 -1.9397049161353235e-33 2.981770013872047e-16 -5.102995508564348 -7.185687456970516 7.484579665315228 1.028689036423135 -2.1213232242039153 -7.318372064038361 0.0 0.0 1.4908850069360235e-16
-0.7389345765113831 0.19727230072021484 3.3375399112701416 1.0830037905562568 -19.907784799675806 -170.38438342866445 5.7592100980928146e-08 -6.037863186011137e-08 -2.4909710664761198 148.15666443852348 -47.77698672477004 -123.55038804459133 4.636772636365637e-06 2.5130062179639526e-06 133.9125950816201 -6.361109362927035e-15 -6.361109362927035e-15 3.1805546814635168e-15 -123.48358347520507 -27.393026296098903 129.1766074506715 1.579416865744294e-06 -1.6868916778954446e-06 -141.41746363406793 -1.5902773407317584e-15 1.5902773407317584e-15 -3.1805546814635168e-15 1.3045438733442734 4.019604946806241 -48.31919780370751 3.8035774098595696 -12.066981710975393 41.9999255119551 1.4908850069360235e-16 -1.2931366107568824e-34 -9.93923337957349e-17 -5.761140433186062 -7.2233741297861815 7.094185740275337 1.671375977278608 -2.2003509324933272 -7.444924301424377 1.987846675914698e-16 -3.965618939654439e-33 -2.2860236773019026e-15
-0.7389835119247437 0.19734719395637512 3.3376269340515137 1.096590889006011 -19.903986032885193 -169.38208271441414 -1.0473976713673629e-07 -1.3881265827107487e-06 -2.901606899258597 148.78037431015665 -49.84988479286471 -123.73334772519429 -2.4810277626298403e-06 -2.8486164498819485e-06 134.21358313193818 -1.7655625192200634e-31 6.3611093629270335e-15 3.1805546814635168e-15 -125.99902044248006 -29.80576633286127 129.80965227984237 1.665345164595363e-06 -2.7648034373286474e-06 -142.85168351447822 1.5902773407317584e-15 -6.3611093629270335e-15 8.827812596100317e-32 1.4829176708049823 3.7946948427569414 -47.559719107257564 3.74031286762004 -11.814604355243274 42.49957805231223 -8.945310041616142e-16 7.758819664541295e-34 -9.93923337957349e-17 -5.9458774234238385 -7.131460326641842 6.071597220540535 1.8429332927002724 -2.0584996661619512 -6.934290834006358 0.0 0.0 1.1181637552020175e-15
-0.7375180125236511 0.1984006017446518 3.336951971054077 0.2580041979360988 -20.021560678963937 -169.4955716689364 5.900942310610577e-08 -1.3935188911485093e-07 -2.8740993661265555 148.29830546646383 -50.06681976732379 -124.05829137950526 -4.9962808661697824e-06 3.7340304839809796e-07 135.073768148235 0.0 0.0 6.3611093629270335e-15 -128.53488811476777 -31.258706621079742 129.31827606678354 7.854317642246788e-07 2.7858297363567533e-06 -143.23427992276459 -1.5902773407317582e-15 0.0 0.0 0.6003030468972003 3.874132390429994 -46.583363020511094 3.8217809458488388 -12.210171351611237 43.17145917186423 -1.987846675914698e-16 2.586273221513765e-34 -1.4908850069360235e-16 -6.857429644117307 -7.204971200665341 5.479875378035718 2.0205034894831466 -1.7515593251681432 -6.021043776634906 1.9878466759146985e-16 1.5902773407317588e-15 -6.46050169672277e-16
-0.7376530766487122 0.19842809438705444 3.3370649814605713 0.509454829717165 -19.90418122852981 -169.3071392955422 1.4747206162867192e-07 1.0652684752865856e-06 -3.0160210920559933 148.0052865688668 -50.260162090755266 -124.60958721923666 -3.937110465118269e-06 -7.865845503622221e-07 134.6508085836932 -1.5902773407317588e-15 5.9635400277440935e-15 4.770832022195275e-15 -126.230067568064 -30.991367746343567 129.32602835211318 1.6807907979179032e-06 -2.8686053449587086e-06 -141.92033686372773 -1.5902773407317584e-15 -6.3611093629270335e-15 -3.1805546814635168e-15 0.8494742579423568 3.9540743964544967 -46.60794731764796 3.828981535907465 -12.414437615138155 43.7438355182579 -9.939233379573489e-17 6.034637516865451e-34 -6.957463365701442e-16 -6.58067658245768 -7.25242769150809 4.857288977868241 1.960339422490814 -1.2915336359718217 -4.4492443197822045 7.951386703658792e-16 1.5902773407317584e-15 -1.5157330903849571e-15
-0.7381883263587952 0.19839830696582794 3.337414026260376 0.862377284944564 -19.765386144297082 -169.0569587163719 7.439329618276424e-08 -1.4539026236580659e-06 -3.414945361806554 147.38524238769952 -49.55883925604026 -124.94992205240693 1.8380161187596713e-06 -1.1609507751927741e-06 135.00658451831762 -7.156248033292914e-15 3.975693351829398e-16 -1.5902773407317588e-15 -126.07067406732844 -31.000146558684342 129.11085241658898 3.910887618273838e-06 -5.153491243931702e-06 -142.32769571244643 -6.3611093629270335e-15 1.5902773407317582e-15 3.1805546814635168e-15 1.0846939454664266 4.033959864363931 -46.43649306427821 3.8941086668985654 -12.67091877998424 44.40583315047995 -9.93923337957349e-16 3.0173187584327255e-33 -3.4787316828507215e-16 -6.336142861257002 -7.127646647220874 4.9351877376522495 2.0327158533283454 -1.3935480182271562 -4.773420321965702 -1.987846675914698e-16 1.5902773407317584e-15 1.5157330903849571e-15
-0.7383406758308411 0.19860179722309113 3.3376829624176025 0.9766503763639477 -19.694818022656165 -169.10043119899416 -7.380995611091118e-08 -9.851288121603639e-07 -3.2941057020079527 147.51200287218674 -49.53626174840136 -124.78591227442598 -1.8666694244923213e-06 5.158295812945855e-07 134.97291272551948 -1.8759101766713175e-31 -6.758678698109974e-15 -3.1805546814635176e-15 -127.44593684078629 -32.39751053426222 127.0332675266722 6.476982588087976e-07 1.8189090970149683e-06 -141.39773115035453 -3.1805546814635164e-15 8.827812596100317e-32 -3.1805546814635164e-15 1.2307012896052059 3.858897279603662 -45.923534698425776 3.581793263129099 -11.975713040018457 42.632685223631 6.957463365701443e-16 -1.5902773407317584e-15 -4.969616689786745e-16 -6.37520394841561 -7.263649799491555 4.064066444072343 2.360258622906755 -1.2093467801161286 -4.089914495705303 1.987846675914698e-16 -1.5902773407317584e-15 1.4908850069360235e-16
